<svg xmlns="http://www.w3.org/2000/svg" viewBox="0 0 322.96 671.78"><defs><style>.cls-1{fill:#fff;}.cls-2,.cls-3{fill:none;stroke:#fff;}.cls-2,.cls-3,.cls-5{stroke-miterlimit:10;}.cls-2{stroke-width:2.5px;}.cls-3{stroke-width:2px;}.cls-4,.cls-5{fill:#1d1d1b;}.cls-4{opacity:0.29;}.cls-5{stroke:#1d1d1b;opacity:0.36;}</style></defs><title>aa2Recurso 3</title><g id="Capa_2" data-name="Capa 2"><g id="Capa_1-2" data-name="Capa 1"><path class="cls-1" d="M111.53,37.48a131,131,0,0,1,7.63-14.86c1.44-2.39,2.87-4.76,4.38-7.12a30.74,30.74,0,0,1,5.33-6.63,16.22,16.22,0,0,1,3.69-2.39,16.52,16.52,0,0,1,4.24-1.12A65.17,65.17,0,0,1,145.25,5c5.58,0,11.12.19,16.67.18l16.67,0a59,59,0,0,1,8.45.56A16.37,16.37,0,0,1,195,9.19a30,30,0,0,1,5.78,6.25c1.62,2.28,3.2,4.56,4.69,6.94a76.36,76.36,0,0,1,7.14,15.1,83.87,83.87,0,0,0-8-14.57c-1.57-2.27-3.23-4.51-4.92-6.68A28.89,28.89,0,0,0,194,10.44a17.34,17.34,0,0,0-3.43-2,18.23,18.23,0,0,0-3.82-1,56.69,56.69,0,0,0-8.18-.39c-5.53,0-11.1.14-16.67.13S150.77,7,145.23,6.89s-11.29-.48-15.36,3.17a31.18,31.18,0,0,0-5.25,6.17c-1.58,2.27-3.1,4.6-4.64,6.91A158.07,158.07,0,0,0,111.53,37.48Z"/><path class="cls-2" d="M102.94,7.29C96.43,10.9,87.4,17.6,74.8,39.3,64.63,56.82,50,87.77,44.94,132.85l11.33,9.33s28.45-21.78,99.78-20.89,98.67,9.78,110.22,20.89l12.89-9.33c-4.57-46.31-20.11-77.52-30.47-94.47-13.51-22.12-23.7-29-30.64-32.45-7.45-3.74-13.76-4.88-55.11-4.65C117.64,1.53,110.69,3,102.94,7.29Z"/><path class="cls-1" d="M258.64,572.62a23.54,23.54,0,0,1-7.08,10.23c-4.67,3.81-9.72,4.61-13.66,5.18-21.21,3.08-28.52,3.1-28.71,3.1h-1.95c-9.48,0-22.69.2-39.71,1.06l-55.21-2-26-2a26.09,26.09,0,0,1-10.67-3.85,26.48,26.48,0,0,1-9.93-11.71q46.59.43,93.19.45h3.26q48.23,0,96.44-.45M61.92,570.09l1.54,3.53a28.45,28.45,0,0,0,22.57,17h.12l13,1,13,1h.1l2.74.09,52.47,1.9h.22c13.92-.7,27.23-1.06,39.58-1.06h1.93c.32,0,7.8,0,29.09-3.13,3.82-.55,9.58-1.38,14.88-5.71a25.84,25.84,0,0,0,7.85-11.3l1.25-3.4-3.62,0c-32,.3-64.42.45-96.42.45h-3.26c-30.91,0-62.25-.16-93.16-.45l-3.86,0Z"/><path class="cls-1" d="M44.94,142.4l8.41,6.95L52.64,202l1.45,16.66,1,15.92,1.85,16.67,1.85,26.85,1.37,22.32,2.41,31.41,1.08,17.61,1.52,20.42,1,17,1,15.59.66,13.84,2.06,25.22.86,14.87,4.94,64.33,3.89,45.13s-10.29.46-14.68.46a7.85,7.85,0,0,1-1.93-.11A7.28,7.28,0,0,1,58.44,559c.08-5.33-.17-31.89-.17-31.89l0-24.14.06-24.08-1-38V425.32l0-31.28-1-33.24V335.86l0-23.86-1-27.34-1.53-31.2L50.11,221s0-3.22-3.54-6.6-7.78-11.92-6.89-26.19,5.26-45.83,5.26-45.83m-2.24-5.74L42,142c-.18,1.29-4.4,31.83-5.28,46-1.16,18.5,5.69,26.53,7.81,28.55A7.57,7.57,0,0,1,47.1,221v.22l0,.1,3.66,32.34,1.52,31.11,1,27.24,0,23.81v25l1,33.2,0,31.24V441l1,37.95-.06,24,0,24.15c0,.29.25,26.62.17,31.84a10.16,10.16,0,0,0,5.79,9.66l.1.06c.84.52,1.71.55,3.51.55,4.41,0,14.39-.45,14.82-.47l3.12-.14-.27-3.11L78.62,520.4l-4.94-64.27-.86-14.85v-.07l-2-25.16-.67-13.8-1-15.63-1-16.95L66.6,349.21l-1.07-17.57-2.42-31.46L61.75,277.9,59.89,251v-.13L58,234.32l-1-15.85v-.08l-1.44-16.51.71-52.49V148l-1.1-.92-8.41-6.95-4.15-3.43Z"/><path class="cls-1" d="M278.51,142.48s4.37,31.56,5.26,45.83-3.33,22.8-6.89,26.19-3.53,6.6-3.53,6.6l-3.67,32.44-1.53,31.2-1,27.34,0,23.86v24.93l-1,33.25,0,31.28V441l-1,38,.06,24.08,0,24.14s-.25,26.56-.17,31.89a7.28,7.28,0,0,1-4.47,7.11,8.74,8.74,0,0,1-1.93.1c-4.39,0-14.68-.46-14.68-.46l3.89-45.13,4.94-64.33.86-14.86,2.06-25.22.67-13.85,1-15.58,1-17,1.53-20.41,1.07-17.61,2.41-31.41,1.37-22.33,1.85-26.85,1.85-16.66,1-15.92,1.45-16.67-.7-52.63,8.4-7m2.24-5.74-4.15,3.43-8.41,7-1.1.91,0,1.44.7,52.48-1.43,16.52v.07l-1,15.86L263.57,251v.13L261.71,278l-1.38,22.35-2.4,31.36-1.08,17.66-1.52,20.37-1,17-1,15.58-.66,13.84-2.06,25.16v.07l-.86,14.84-4.94,64.3-3.89,45.11-.27,3.11,3.13.14c.42,0,10.41.46,14.81.46,1.8,0,2.67,0,3.51-.55l.1,0a10.16,10.16,0,0,0,5.79-9.66c-.08-5.23.17-31.55.17-31.82l0-24.16L268.15,479l1-37.94V425.4l0-31.24,1-33.2v-25l0-23.81,1-27.28,1.52-31.07,3.66-32.34,0-.27v-.06a7.55,7.55,0,0,1,2.6-4.44c2.13-2,9-10.06,7.82-28.55-.89-14.22-5.11-44.76-5.29-46.05l-.73-5.33Z"/><path class="cls-1" d="M262.35,643.16c4.13-32.94,7.46-66,10.37-99.11s5.32-66.24,7.22-99.41c1-16.58,1.72-33.18,2.54-49.78l.91-24.9.44-12.46.3-12.45.57-24.92.26-24.92.11-12.46L285,270.29l-.12-24.93.25,24.93.12,12.46-.05,12.46-.13,24.93-.45,24.92-.24,12.46L284,370l-.79,24.91c-.74,16.6-1.33,33.21-2.29,49.8q-2.61,49.8-6.73,99.49c-2.74,33.13-5.9,66.21-9.87,99.24Z"/><path class="cls-1" d="M59.61,643.42c-4-33-7.13-66.11-9.87-99.24s-5-66.29-6.73-99.49c-1-16.59-1.55-33.2-2.29-49.8L39.94,370l-.38-12.46-.24-12.46-.45-24.92-.13-24.93-.05-12.46.12-12.46.25-24.93-.12,24.93-.06,12.46L39,295.21l.26,24.92.57,24.92.3,12.45L40.56,370l.91,24.9c.82,16.6,1.5,33.2,2.54,49.78q2.85,49.76,7.22,99.41c2.91,33.09,6.24,66.17,10.37,99.11Z"/><path class="cls-1" d="M58.54,569.32C60,581.54,61.09,593.79,62,606.07c.44,6.14.77,12.29.92,18.45l.08,4.62,0,4.64c0,1.54-.11,3.09-.17,4.64s-.28,3.12-.42,4.67l-.45-1c3.7,2.21,7.62,4.2,11.55,6.07s8,3.61,12,5.2a221,221,0,0,0,24.83,8.28,207.31,207.31,0,0,0,51.7,7.13,201.35,201.35,0,0,0,26.09-1.46l6.47-.92c1.08-.14,2.15-.35,3.22-.56l3.21-.62c4.3-.73,8.49-1.93,12.74-2.94,2.09-.59,4.17-1.24,6.26-1.87l3.13-.94c1-.33,2.06-.73,3.09-1.09l6.15-2.21c2-.79,4-1.68,6-2.51,4.07-1.57,8-3.57,11.91-5.42,2-.9,3.88-2,5.81-3l5.75-3.13-.5.9q-.15-9.45-.09-18.9c0-6.3.14-12.61.39-18.9s.57-12.6,1.13-18.88c.28-3.14.6-6.28,1.11-9.39a36.76,36.76,0,0,1,2.37-9.13,36.91,36.91,0,0,0-2,9.18c-.36,3.12-.62,6.26-.8,9.39-.37,6.28-.51,12.57-.56,18.86s0,12.57.06,18.86.22,12.58.43,18.86l0,.61-.52.29-5.75,3.27c-1.93,1.08-3.81,2.24-5.81,3.18-4,2-7.86,4-12,5.71-2,.86-4,1.77-6.1,2.58l-6.23,2.28c-1,.38-2.07.78-3.12,1.13l-3.17,1c-2.11.65-4.22,1.33-6.34,1.94-4.3,1-8.55,2.28-12.91,3l-3.25.65c-1.09.22-2.17.45-3.27.59l-6.56,1A200.38,200.38,0,0,1,162,671.77a213.64,213.64,0,0,1-77.43-16.1c-4.09-1.68-8.1-3.53-12.07-5.48s-7.84-4-11.64-6.4l-.53-.32.07-.67c.16-1.5.4-3,.49-4.51s.22-3,.25-4.56l.11-4.59v-4.6q-.1-9.19-.48-18.41t-1-18.41C59.4,581.59,59,575.45,58.54,569.32Z"/><path class="cls-1" d="M49.69,237.51q-3.78-2.65-7.49-5.38c-2.49-1.81-5-3.6-7.46-5.43l-.1-.11c0,.08,0,0,0,0s-.11,0-.17,0a2.51,2.51,0,0,0-.49.1,4.75,4.75,0,0,0-1.07.59,13.22,13.22,0,0,0-2,1.78,40,40,0,0,0-3.47,4.26,32.77,32.77,0,0,1-3.63,4.42,36.69,36.69,0,0,1-4.37,3.7,39.54,39.54,0,0,1-10.1,5.33A20.1,20.1,0,0,1,3.56,248a6.12,6.12,0,0,1-1.66-.17,3.17,3.17,0,0,1-.94-.41,1.56,1.56,0,0,1-.53-.55,2.37,2.37,0,0,1-.25-.55A5.83,5.83,0,0,1,0,244.62a12,12,0,0,1,.12-1.5,42.5,42.5,0,0,1,3.29-11,47,47,0,0,1,5.82-9.79A25.73,25.73,0,0,1,18,215a16.33,16.33,0,0,1,11.28-1.15l-.35.08c3.29-2.51,6.55-5.06,9.88-7.53-3.09,2.76-6.24,5.45-9.36,8.17l-.14.12-.21,0a16.89,16.89,0,0,0-5.4-.14,15.76,15.76,0,0,0-5.09,1.7,24.51,24.51,0,0,0-8,7.2,44.63,44.63,0,0,0-5.4,9.51,40.85,40.85,0,0,0-3.09,10.44,7.38,7.38,0,0,0,0,2.36s0,.12,0,.09l0,0s-.07,0,0,0a1.9,1.9,0,0,0,.33.14,4.78,4.78,0,0,0,1.12.11,18.54,18.54,0,0,0,5.15-1.09,41.14,41.14,0,0,0,9.7-5,32.82,32.82,0,0,0,7.81-7.57,40.89,40.89,0,0,1,3.73-4.3,14.17,14.17,0,0,1,2.26-1.86,6.09,6.09,0,0,1,1.4-.69,3.21,3.21,0,0,1,.9-.12,1.52,1.52,0,0,1,1.06.49l-.11-.1c2.4,1.92,4.77,3.88,7.15,5.82S47.34,235.53,49.69,237.51Z"/><path class="cls-1" d="M273.27,237.51c2.35-2,4.73-3.93,7.11-5.88s4.75-3.9,7.15-5.82l-.1.1a1.5,1.5,0,0,1,1.06-.49,3.19,3.19,0,0,1,.89.12,5.89,5.89,0,0,1,1.4.69,14.17,14.17,0,0,1,2.26,1.86,40.89,40.89,0,0,1,3.73,4.3,32.68,32.68,0,0,0,7.82,7.57,41.08,41.08,0,0,0,9.69,5,18.54,18.54,0,0,0,5.15,1.09,4.72,4.72,0,0,0,1.12-.11,2.54,2.54,0,0,0,.34-.14l0,0,0,0a.31.31,0,0,1,0-.09,7.1,7.1,0,0,0,0-2.36,41.23,41.23,0,0,0-3.08-10.44,45.1,45.1,0,0,0-5.41-9.51,24.41,24.41,0,0,0-8-7.2,15.79,15.79,0,0,0-5.08-1.7,17,17,0,0,0-5.41.14l-.21,0-.14-.12c-3.12-2.72-6.27-5.41-9.35-8.17,3.32,2.47,6.58,5,9.87,7.53l-.35-.08A16.33,16.33,0,0,1,305,215a25.77,25.77,0,0,1,8.75,7.37,46.56,46.56,0,0,1,5.81,9.79,42.92,42.92,0,0,1,3.3,11,14.29,14.29,0,0,1,.11,1.5,5.83,5.83,0,0,1-.18,1.69,2.3,2.3,0,0,1-.24.55,1.67,1.67,0,0,1-.54.55,3.06,3.06,0,0,1-.94.41,6.09,6.09,0,0,1-1.66.17,20,20,0,0,1-5.75-1.23,39.6,39.6,0,0,1-10.11-5.33,37.5,37.5,0,0,1-4.37-3.7,33.54,33.54,0,0,1-3.63-4.42,40,40,0,0,0-3.47-4.26,13.22,13.22,0,0,0-2-1.78,4.54,4.54,0,0,0-1.07-.59,2.37,2.37,0,0,0-.49-.1s-.13,0-.16,0-.1.06,0,0l-.11.11c-2.47,1.83-5,3.62-7.45,5.43S275.79,235.74,273.27,237.51Z"/><path class="cls-1" d="M61.77,603.11A124.91,124.91,0,0,0,84.72,615.9a102.38,102.38,0,0,0,12.06,4.93,65.11,65.11,0,0,0,12.63,2.76,233.28,233.28,0,0,0,26.24,1.15c8.8,0,17.62-.12,26.43-.28s17.63-.35,26.44-.66,17.59-.74,26.27-1.77,17.23-2.8,25-6.54a98.23,98.23,0,0,0,22.58-13.3q-2.34,2.35-4.84,4.56t-5.19,4.18a89.93,89.93,0,0,1-11.27,7.27C232.93,622.12,224,624,215.15,625s-17.69,1.46-26.53,1.79-17.66.5-26.48.66-17.66.29-26.5.28A233,233,0,0,1,109,626.56a66.44,66.44,0,0,1-13.18-2.88c-2.15-.69-4.23-1.51-6.31-2.34s-4.15-1.68-6.13-2.72A106.27,106.27,0,0,1,61.77,603.11Z"/><path class="cls-1" d="M268.26,642.06a180.25,180.25,0,0,1,1.57-21.64q.8-5.37,2.06-10.67.35-1.32.78-2.61a6.94,6.94,0,0,1,1.28-2.45,1.16,1.16,0,0,1,1.43-.3,2.14,2.14,0,0,1,.87,1.18,11.69,11.69,0,0,1,.53,2.72,98.57,98.57,0,0,1,0,10.87c0,1.8-.07,3.6,0,5.38a22.55,22.55,0,0,0,.23,2.63,6.49,6.49,0,0,0,.3,1.21c.14.36.35.67.53.71a2.08,2.08,0,0,0,1-.18,8.5,8.5,0,0,0,1.15-.54,24.08,24.08,0,0,0,2.24-1.42c1.47-1,2.88-2.13,4.29-3.26s2.83-2.25,4.28-3.34a27,27,0,0,1,2.24-1.55,8.84,8.84,0,0,1,1.22-.64,2.89,2.89,0,0,1,.67-.2.69.69,0,0,1,.67.23l-.08.06c-.31-.31-.81-.09-1.18.1a8.8,8.8,0,0,0-1.12.71c-.73.53-1.42,1.11-2.11,1.68-1.38,1.16-2.71,2.38-4.09,3.55s-2.76,2.35-4.23,3.45a20.47,20.47,0,0,1-2.31,1.52,9,9,0,0,1-1.29.61,4.12,4.12,0,0,1-.73.21,1.56,1.56,0,0,1-.93,0,2.1,2.1,0,0,1-1.16-1.3,7.74,7.74,0,0,1-.37-1.41,18.82,18.82,0,0,1-.23-2.77c0-1.83,0-3.65.1-5.46.14-3.61.47-7.21.35-10.79a10.84,10.84,0,0,0-.39-2.62,1.8,1.8,0,0,0-.64-1,.82.82,0,0,0-1,.23,6.7,6.7,0,0,0-1.23,2.3,25.67,25.67,0,0,0-.73,2.6,93.36,93.36,0,0,0-1.58,10.69c-.82,7.16-1.51,14.35-2.29,21.54Z"/><path class="cls-1" d="M56.07,641.07c-.77-7.19-1.47-14.38-2.29-21.54a91.2,91.2,0,0,0-1.58-10.69,23.31,23.31,0,0,0-.73-2.6,6.7,6.7,0,0,0-1.23-2.3.82.82,0,0,0-1-.23,1.8,1.8,0,0,0-.64,1,11.36,11.36,0,0,0-.39,2.62c-.12,3.58.21,7.18.35,10.79.08,1.81.15,3.63.11,5.46a18.85,18.85,0,0,1-.24,2.77,7,7,0,0,1-.37,1.41,2.08,2.08,0,0,1-1.15,1.3,1.59,1.59,0,0,1-.94,0,4.38,4.38,0,0,1-.73-.21,9.53,9.53,0,0,1-1.29-.61,20.47,20.47,0,0,1-2.31-1.52c-1.46-1.1-2.85-2.27-4.23-3.45s-2.71-2.39-4.09-3.55c-.69-.57-1.38-1.15-2.1-1.68a8.9,8.9,0,0,0-1.13-.71c-.37-.19-.87-.41-1.18-.1l-.08-.06a.69.69,0,0,1,.67-.23,3.13,3.13,0,0,1,.68.2,9.33,9.33,0,0,1,1.21.64c.78.48,1.52,1,2.25,1.55,1.44,1.09,2.86,2.21,4.27,3.34s2.83,2.24,4.29,3.26c.74.51,1.48,1,2.24,1.42a8.07,8.07,0,0,0,1.16.54,2,2,0,0,0,1,.18c.18,0,.4-.35.53-.71a6.49,6.49,0,0,0,.3-1.21,22.55,22.55,0,0,0,.23-2.63c.08-1.78,0-3.58,0-5.38a101.09,101.09,0,0,1,0-10.87,11.69,11.69,0,0,1,.53-2.72,2.14,2.14,0,0,1,.87-1.18,1.17,1.17,0,0,1,1.44.3,7.09,7.09,0,0,1,1.27,2.45c.29.86.56,1.73.78,2.61q1.27,5.29,2.06,10.67a180.25,180.25,0,0,1,1.57,21.64Z"/><path class="cls-1" d="M60.37,643l-.69,2.59,0,.08-.08,0a103.67,103.67,0,0,1-17-8.1,52.83,52.83,0,0,1-7.72-5.57c-2.35-2.14-4.7-4.6-5.75-7.92a10.2,10.2,0,0,1-.44-2.48l-.21-2.38c-.15-1.59-.2-3.14-.31-4.72-.2-3.13-.34-6.27-.49-9.4-.32-6.26-.54-12.53-.8-18.79q-1.44-37.59-2.42-75.18t-1.69-75.2c-.2-12.54-.4-25.08-.5-37.61.21-12.54.44-25.08.9-37.62l.5,18.8c.19,6.27.35,12.53.59,18.8q.2,18.79.51,37.59.64,37.59,1.69,75.18t2.41,75.16c.27,6.26.49,12.52.81,18.78.14,3.12.29,6.25.49,9.37.1,1.55.15,3.14.3,4.67A24,24,0,0,0,31,623.4,18.39,18.39,0,0,0,36,630.7a50.76,50.76,0,0,0,7.23,5.78,110.6,110.6,0,0,0,16.43,9l-.1,0Z"/><path class="cls-1" d="M264.29,642.86l.85,2.54-.11-.06a110.65,110.65,0,0,0,16.44-9,51.33,51.33,0,0,0,7.23-5.78,18.56,18.56,0,0,0,4.93-7.31,24.66,24.66,0,0,0,.61-4.43c.15-1.52.2-3.11.31-4.66.2-3.12.34-6.25.49-9.38.31-6.25.54-12.51.8-18.77q1.44-37.57,2.41-75.16t1.69-75.18q.33-18.8.52-37.59c.24-6.27.39-12.53.59-18.8l.49-18.8c.46,12.53.69,25.08.9,37.62-.1,12.53-.29,25.07-.5,37.6q-.65,37.62-1.69,75.2t-2.41,75.19c-.27,6.26-.49,12.53-.81,18.79-.14,3.13-.29,6.27-.49,9.4-.1,1.58-.15,3.13-.31,4.72l-.2,2.38a10.24,10.24,0,0,1-.45,2.48c-1.05,3.32-3.4,5.77-5.74,7.92a52.92,52.92,0,0,1-7.73,5.57,103.19,103.19,0,0,1-17,8.1l-.09,0,0-.09Z"/><path class="cls-1" d="M295.9,214.18a8.41,8.41,0,0,0-2.75,3.16,9.07,9.07,0,0,0-.64,4.06,24.88,24.88,0,0,0,.46,4.22,34.44,34.44,0,0,0,1.12,4.15,17.65,17.65,0,0,1-2.33-8.35,8.38,8.38,0,0,1,.88-4.35A7.07,7.07,0,0,1,295.9,214.18Z"/><path class="cls-1" d="M27.91,213.71a7,7,0,0,1,3.26,2.89,8.38,8.38,0,0,1,.88,4.35,17.74,17.74,0,0,1-2.33,8.35,34.44,34.44,0,0,0,1.12-4.15,25.11,25.11,0,0,0,.46-4.22,9,9,0,0,0-.64-4.06A8.41,8.41,0,0,0,27.91,213.71Z"/><path class="cls-1" d="M95.36,14.41a91.2,91.2,0,0,0-22.3,6.93,67.62,67.62,0,0,0-10.14,5.77,59.5,59.5,0,0,0-9,7.41c-1.43,1.32-2.65,2.83-4,4.26s-2.42,3-3.48,4.65A60.08,60.08,0,0,0,41,53.61a86.5,86.5,0,0,0-5.61,22.51c-.51,3.86-.85,7.75-1.17,11.64l-1,11.68c-.62,7.79-1.2,15.59-1.69,23.39-1,15.59-1.68,31.2-2,46.82q-.25,11.72-.24,23.44l-.05,23.46c0,15.65,0,31.29-.14,46.93-.32,31.29-2.15,62.56-5.07,93.7,1.06-15.61,2-31.22,2.53-46.84q.47-11.71.76-23.44c.18-7.81.36-15.63.24-23.45-.12-15.63-.09-31.27-.14-46.9l0-23.46q-.06-11.73.15-23.48c.35-15.65,1.11-31.29,2.16-46.9.52-7.81,1.13-15.61,1.78-23.41s1.25-15.59,2.33-23.38a88.05,88.05,0,0,1,6-22.8A61.38,61.38,0,0,1,45.6,42.8c1.1-1.64,2.36-3.16,3.6-4.7s2.6-3,4.08-4.28a60.82,60.82,0,0,1,9.22-7.33,67.21,67.21,0,0,1,10.34-5.63A88.06,88.06,0,0,1,95.36,14.41Z"/><path class="cls-1" d="M228.27,11.63a88.06,88.06,0,0,1,22.52,6.45,69,69,0,0,1,10.34,5.63,60.27,60.27,0,0,1,9.22,7.34c1.48,1.31,2.73,2.84,4.08,4.27s2.5,3.06,3.6,4.7a61.38,61.38,0,0,1,5.78,10.32,88.05,88.05,0,0,1,6,22.8c1.08,7.79,1.66,15.59,2.33,23.38s1.26,15.6,1.78,23.41c1.05,15.61,1.81,31.25,2.16,46.91q.22,11.73.15,23.48l0,23.45c-.05,15.63,0,31.27-.14,46.91-.12,7.82.06,15.63.24,23.44s.45,15.63.76,23.44c.57,15.62,1.47,31.24,2.53,46.84-2.92-31.14-4.75-62.41-5.07-93.7-.12-15.64-.1-31.28-.14-46.93l0-23.46q0-11.72-.24-23.43c-.29-15.62-1-31.24-2-46.83-.49-7.8-1.07-15.6-1.69-23.39l-1-11.68c-.32-3.89-.66-7.78-1.17-11.63a86.57,86.57,0,0,0-5.61-22.52,59.61,59.61,0,0,0-5.54-10.17c-1.06-1.63-2.29-3.13-3.48-4.66s-2.54-2.93-4-4.26a60.61,60.61,0,0,0-9-7.41,67.62,67.62,0,0,0-10.14-5.77A91.63,91.63,0,0,0,228.27,11.63Z"/><path class="cls-1" d="M25.61,477.07a12.83,12.83,0,0,1,5,4.17,11,11,0,0,1,1.14,3.23,7.21,7.21,0,0,1-.14,3.59,8.41,8.41,0,0,1-1.84,3,29.31,29.31,0,0,0-2,2.32,7,7,0,0,0-1.13,2.47,6.36,6.36,0,0,0-.07,2.71c.33,1.78,1.49,3.47,2.52,5.35a20.48,20.48,0,0,1,1.36,3,15.87,15.87,0,0,1,.74,3.26,17.21,17.21,0,0,1-.58,6.59,19.86,19.86,0,0,1-3.51,5.43,26.42,26.42,0,0,0,1.59-6,15.3,15.3,0,0,0,.51-5.82,15,15,0,0,0-1.86-5.54c-.95-1.76-2.27-3.58-2.74-6a8.76,8.76,0,0,1,1.54-6.7c1.31-1.86,3-3.15,3.52-4.77a5.38,5.38,0,0,0,.08-2.6,8.56,8.56,0,0,0-1-2.64A15.34,15.34,0,0,0,25.61,477.07Z"/><path class="cls-1" d="M298.19,477.07a15.22,15.22,0,0,0-3.24,5.12,8.29,8.29,0,0,0-.95,2.64,5.27,5.27,0,0,0,.07,2.6c.48,1.62,2.21,2.91,3.53,4.77a8.79,8.79,0,0,1,1.53,6.7c-.46,2.37-1.79,4.19-2.73,6a14.86,14.86,0,0,0-1.87,5.54,15.3,15.3,0,0,0,.51,5.82,27,27,0,0,0,1.59,6,20.34,20.34,0,0,1-3.51-5.43,17,17,0,0,1-.57-6.59,15.87,15.87,0,0,1,.74-3.26,21.54,21.54,0,0,1,1.35-3c1-1.88,2.2-3.57,2.52-5.35a6.36,6.36,0,0,0-.07-2.71,6.82,6.82,0,0,0-1.13-2.47A29.31,29.31,0,0,0,294,491a8.55,8.55,0,0,1-1.84-3,7.33,7.33,0,0,1-.14-3.59,11,11,0,0,1,1.14-3.23A12.93,12.93,0,0,1,298.19,477.07Z"/><path class="cls-1" d="M24.08,360.62a2.17,2.17,0,0,0,1.4.57,1.64,1.64,0,0,0,1.21-.71,7,7,0,0,0,1.11-2.82,37.69,37.69,0,0,0,.66-6.21c.14-4.19.05-8.4-.14-12.61s-.45-8.42-.69-12.63-.51-8.44-.68-12.68c.75,4.17,1.39,8.36,1.85,12.57s.83,8.44,1,12.68a98.71,98.71,0,0,1-.18,12.75,31.88,31.88,0,0,1-1.13,6.32,7.41,7.41,0,0,1-1.51,2.9,2,2,0,0,1-1.52.66A2.27,2.27,0,0,1,24.08,360.62Z"/><path class="cls-1" d="M298.47,361.62a2.27,2.27,0,0,1-1.39.79,2,2,0,0,1-1.52-.66,7.54,7.54,0,0,1-1.51-2.9,32.62,32.62,0,0,1-1.13-6.32,98.71,98.71,0,0,1-.18-12.75q.28-6.36,1-12.68c.46-4.21,1.11-8.4,1.85-12.57-.16,4.24-.42,8.46-.68,12.68s-.52,8.42-.68,12.63-.29,8.42-.15,12.61a37.7,37.7,0,0,0,.67,6.21,6.83,6.83,0,0,0,1.1,2.82,1.66,1.66,0,0,0,1.21.71A2.17,2.17,0,0,0,298.47,361.62Z"/><path class="cls-1" d="M248.12,25.22a93.78,93.78,0,0,1,13.44,9.87,94.83,94.83,0,0,1,11.58,12,68.21,68.21,0,0,1,8.73,14.24,54.33,54.33,0,0,1,2.75,7.9,50.07,50.07,0,0,1,1.28,8.24,51.35,51.35,0,0,0-4.55-15.9,72.15,72.15,0,0,0-4-7.27,80.08,80.08,0,0,0-4.82-6.74,100.67,100.67,0,0,0-11.37-12.08c-2.05-1.87-4.17-3.66-6.34-5.38S250.45,26.74,248.12,25.22Z"/><path class="cls-1" d="M247,24.62a72.38,72.38,0,0,1,15.66,8.49,67.37,67.37,0,0,1,13.17,12.07,51.81,51.81,0,0,1,5.07,7.4c.77,1.29,1.4,2.65,2.06,4a45,45,0,0,1,3.71,21.83,51.13,51.13,0,0,0-.63-8.84l-.16-1.1-.23-1.08c-.16-.72-.3-1.44-.48-2.16-.42-1.41-.78-2.84-1.33-4.21s-1.1-2.72-1.67-4.08-1.29-2.64-2.06-3.9a51.53,51.53,0,0,0-5.05-7.21A70.49,70.49,0,0,0,262.2,33.73a85.18,85.18,0,0,0-7.37-4.93A78.4,78.4,0,0,0,247,24.62Z"/><path class="cls-1" d="M78.64,25.81c-2.32,1.52-4.54,3.2-6.71,4.92s-4.3,3.51-6.34,5.38A101.51,101.51,0,0,0,54.21,48.19c-1.71,2.17-3.33,4.42-4.82,6.75a70.84,70.84,0,0,0-4,7.26,51.17,51.17,0,0,0-4.56,15.9,50.07,50.07,0,0,1,1.28-8.24A54.33,54.33,0,0,1,44.89,62a68.63,68.63,0,0,1,8.73-14.24,96.9,96.9,0,0,1,11.58-12A95.33,95.33,0,0,1,78.64,25.81Z"/><path class="cls-1" d="M79.77,25.22a76.32,76.32,0,0,0-7.84,4.17,85.18,85.18,0,0,0-7.37,4.93A70.11,70.11,0,0,0,51.72,46.41a50.86,50.86,0,0,0-5.06,7.22c-.77,1.25-1.39,2.58-2.06,3.89s-1.2,2.69-1.67,4.08-.91,2.8-1.32,4.21c-.19.72-.32,1.44-.48,2.16l-.24,1.08-.15,1.1A52.22,52.22,0,0,0,40.1,79a43.9,43.9,0,0,1,2.11-17.64,40.18,40.18,0,0,1,1.61-4.19c.66-1.34,1.28-2.7,2-4a52,52,0,0,1,5.07-7.39A67.7,67.7,0,0,1,64.11,33.7,73,73,0,0,1,79.77,25.22Z"/><path class="cls-3" d="M142.36,626.23s-2.79-8.42,2.35-8.27,34.4,0,34.4,0,4.54-1.67,2.91,6.59"/></g><g id="Capa_2-2" data-name="Capa 2"><path class="cls-4" d="M285.84,106.3c1.85-.33,1.19-15.68-2-29.61-1.65-7.15-3.15-13.44-7.56-20.44-6.4-10.17-16-17.16-17.37-16-1.17,1,4.14,7.57,9.84,19.18a135.34,135.34,0,0,1,10.64,30.45C283.32,103.66,285,106.45,285.84,106.3Z"/><path class="cls-4" d="M39.74,106.89c-1.84-.33-1.19-15.68,2-29.6,1.65-7.16,3.15-13.45,7.56-20.45,6.4-10.17,16-17.16,17.37-16,1.17,1-4.14,7.56-9.84,19.18A135.79,135.79,0,0,0,46.2,90.47C42.26,104.26,40.56,107,39.74,106.89Z"/><path class="cls-5" d="M65.46,270.5s74.47-39.46,192.15,0L237.2,567.26H87Z"/></g></g></svg>